<mxfile host="app.diagrams.net" modified="2023-11-29T22:23:41.273Z" agent="Mozilla/5.0 (Windows NT 10.0; Win64; x64) AppleWebKit/537.36 (KHTML, like Gecko) Chrome/119.0.0.0 Safari/537.36" etag="4VLy-dRwNguKid9Ijhnk" version="22.1.5" type="device">
  <diagram name="Page-1" id="4gJtOpz2wPlcUNwnw_aG">
    <mxGraphModel dx="1900" dy="534" grid="1" gridSize="10" guides="1" tooltips="1" connect="1" arrows="1" fold="1" page="1" pageScale="1" pageWidth="850" pageHeight="1100" math="0" shadow="0">
      <root>
        <mxCell id="0" />
        <mxCell id="1" parent="0" />
        <mxCell id="E9quBOTO5DfnvyNl6SX9-1" value="" style="rounded=0;whiteSpace=wrap;html=1;" vertex="1" parent="1">
          <mxGeometry width="710" height="580" as="geometry" />
        </mxCell>
        <mxCell id="E9quBOTO5DfnvyNl6SX9-2" value="&lt;b&gt;USER&lt;/b&gt;" style="shape=umlActor;verticalLabelPosition=bottom;verticalAlign=top;html=1;outlineConnect=0;" vertex="1" parent="1">
          <mxGeometry x="-100" y="90" width="30" height="60" as="geometry" />
        </mxCell>
        <mxCell id="E9quBOTO5DfnvyNl6SX9-5" value="Login" style="ellipse;whiteSpace=wrap;html=1;" vertex="1" parent="1">
          <mxGeometry x="160" y="20" width="140" height="70" as="geometry" />
        </mxCell>
        <mxCell id="E9quBOTO5DfnvyNl6SX9-6" value="&lt;b&gt;SYS&lt;/b&gt;" style="shape=umlActor;verticalLabelPosition=bottom;verticalAlign=top;html=1;" vertex="1" parent="1">
          <mxGeometry x="760" y="230" width="30" height="60" as="geometry" />
        </mxCell>
        <mxCell id="E9quBOTO5DfnvyNl6SX9-7" value="Verify" style="ellipse;whiteSpace=wrap;html=1;" vertex="1" parent="1">
          <mxGeometry x="425" y="30" width="140" height="70" as="geometry" />
        </mxCell>
        <mxCell id="E9quBOTO5DfnvyNl6SX9-8" value="Exception error" style="ellipse;whiteSpace=wrap;html=1;" vertex="1" parent="1">
          <mxGeometry x="440" y="120" width="140" height="70" as="geometry" />
        </mxCell>
        <mxCell id="E9quBOTO5DfnvyNl6SX9-9" value="View item" style="ellipse;whiteSpace=wrap;html=1;" vertex="1" parent="1">
          <mxGeometry x="100" y="120" width="140" height="70" as="geometry" />
        </mxCell>
        <mxCell id="E9quBOTO5DfnvyNl6SX9-10" value="Pay" style="ellipse;whiteSpace=wrap;html=1;" vertex="1" parent="1">
          <mxGeometry x="370" y="270" width="140" height="70" as="geometry" />
        </mxCell>
        <mxCell id="E9quBOTO5DfnvyNl6SX9-11" value="Cash" style="ellipse;whiteSpace=wrap;html=1;" vertex="1" parent="1">
          <mxGeometry x="260" y="350" width="140" height="70" as="geometry" />
        </mxCell>
        <mxCell id="E9quBOTO5DfnvyNl6SX9-12" value="Creidt" style="ellipse;whiteSpace=wrap;html=1;" vertex="1" parent="1">
          <mxGeometry x="460" y="360" width="140" height="70" as="geometry" />
        </mxCell>
        <mxCell id="E9quBOTO5DfnvyNl6SX9-13" value="Checkout&amp;nbsp;" style="ellipse;whiteSpace=wrap;html=1;" vertex="1" parent="1">
          <mxGeometry x="370" y="470" width="140" height="70" as="geometry" />
        </mxCell>
        <mxCell id="E9quBOTO5DfnvyNl6SX9-14" value="Verify" style="ellipse;whiteSpace=wrap;html=1;" vertex="1" parent="1">
          <mxGeometry x="540" y="480" width="140" height="70" as="geometry" />
        </mxCell>
        <mxCell id="E9quBOTO5DfnvyNl6SX9-21" value="" style="endArrow=open;endFill=1;endSize=12;html=1;rounded=0;entryX=0;entryY=0.5;entryDx=0;entryDy=0;exitX=0.5;exitY=0.5;exitDx=0;exitDy=0;exitPerimeter=0;" edge="1" parent="1" source="E9quBOTO5DfnvyNl6SX9-2" target="E9quBOTO5DfnvyNl6SX9-5">
          <mxGeometry width="160" relative="1" as="geometry">
            <mxPoint x="50" y="120" as="sourcePoint" />
            <mxPoint x="210" y="120" as="targetPoint" />
          </mxGeometry>
        </mxCell>
        <mxCell id="E9quBOTO5DfnvyNl6SX9-23" value="" style="endArrow=open;endFill=1;endSize=12;html=1;rounded=0;exitX=1;exitY=1;exitDx=0;exitDy=0;entryX=0;entryY=0.5;entryDx=0;entryDy=0;" edge="1" parent="1" source="E9quBOTO5DfnvyNl6SX9-5" target="E9quBOTO5DfnvyNl6SX9-8">
          <mxGeometry width="160" relative="1" as="geometry">
            <mxPoint x="340" y="150" as="sourcePoint" />
            <mxPoint x="500" y="150" as="targetPoint" />
          </mxGeometry>
        </mxCell>
        <mxCell id="E9quBOTO5DfnvyNl6SX9-24" value="" style="endArrow=open;endFill=1;endSize=12;html=1;rounded=0;entryX=0;entryY=0.5;entryDx=0;entryDy=0;exitX=1;exitY=0.5;exitDx=0;exitDy=0;" edge="1" parent="1" source="E9quBOTO5DfnvyNl6SX9-5" target="E9quBOTO5DfnvyNl6SX9-7">
          <mxGeometry width="160" relative="1" as="geometry">
            <mxPoint x="280" y="110" as="sourcePoint" />
            <mxPoint x="440" y="110" as="targetPoint" />
          </mxGeometry>
        </mxCell>
        <mxCell id="E9quBOTO5DfnvyNl6SX9-25" value="" style="endArrow=open;endFill=1;endSize=12;html=1;rounded=0;exitX=0.5;exitY=0.5;exitDx=0;exitDy=0;exitPerimeter=0;entryX=1;entryY=1;entryDx=0;entryDy=0;" edge="1" parent="1" source="E9quBOTO5DfnvyNl6SX9-6" target="E9quBOTO5DfnvyNl6SX9-7">
          <mxGeometry width="160" relative="1" as="geometry">
            <mxPoint x="700" y="210" as="sourcePoint" />
            <mxPoint x="500" y="150" as="targetPoint" />
          </mxGeometry>
        </mxCell>
        <mxCell id="E9quBOTO5DfnvyNl6SX9-26" value="" style="endArrow=open;endFill=1;endSize=12;html=1;rounded=0;exitX=0.493;exitY=0.653;exitDx=0;exitDy=0;exitPerimeter=0;entryX=1;entryY=0.5;entryDx=0;entryDy=0;" edge="1" parent="1" source="E9quBOTO5DfnvyNl6SX9-6" target="E9quBOTO5DfnvyNl6SX9-9">
          <mxGeometry width="160" relative="1" as="geometry">
            <mxPoint x="340" y="250" as="sourcePoint" />
            <mxPoint x="500" y="250" as="targetPoint" />
          </mxGeometry>
        </mxCell>
        <mxCell id="E9quBOTO5DfnvyNl6SX9-27" value="&amp;lt;&amp;lt;Include&amp;gt;&amp;gt;" style="text;html=1;strokeColor=none;fillColor=none;align=center;verticalAlign=middle;whiteSpace=wrap;rounded=0;rotation=0;" vertex="1" parent="1">
          <mxGeometry x="320" y="30" width="60" height="30" as="geometry" />
        </mxCell>
        <mxCell id="E9quBOTO5DfnvyNl6SX9-28" value="&amp;lt;&amp;lt;Extend&amp;gt;&amp;gt;" style="text;html=1;strokeColor=none;fillColor=none;align=center;verticalAlign=middle;whiteSpace=wrap;rounded=0;rotation=30;" vertex="1" parent="1">
          <mxGeometry x="310" y="100" width="60" height="30" as="geometry" />
        </mxCell>
        <mxCell id="E9quBOTO5DfnvyNl6SX9-31" value="" style="endArrow=open;endFill=1;endSize=12;html=1;rounded=0;entryX=1;entryY=0.5;entryDx=0;entryDy=0;exitX=0;exitY=1;exitDx=0;exitDy=0;exitPerimeter=0;" edge="1" parent="1" source="E9quBOTO5DfnvyNl6SX9-6" target="E9quBOTO5DfnvyNl6SX9-10">
          <mxGeometry width="160" relative="1" as="geometry">
            <mxPoint x="340" y="150" as="sourcePoint" />
            <mxPoint x="500" y="150" as="targetPoint" />
          </mxGeometry>
        </mxCell>
        <mxCell id="E9quBOTO5DfnvyNl6SX9-32" value="" style="endArrow=open;endFill=1;endSize=12;html=1;rounded=0;entryX=0.5;entryY=0;entryDx=0;entryDy=0;exitX=1;exitY=0.5;exitDx=0;exitDy=0;" edge="1" parent="1" source="E9quBOTO5DfnvyNl6SX9-12" target="E9quBOTO5DfnvyNl6SX9-14">
          <mxGeometry width="160" relative="1" as="geometry">
            <mxPoint x="137.5" y="430" as="sourcePoint" />
            <mxPoint x="282.5" y="385" as="targetPoint" />
          </mxGeometry>
        </mxCell>
        <mxCell id="E9quBOTO5DfnvyNl6SX9-33" value="&amp;lt;&amp;lt;Include&amp;gt;&amp;gt;" style="text;html=1;strokeColor=none;fillColor=none;align=center;verticalAlign=middle;whiteSpace=wrap;rounded=0;rotation=90;" vertex="1" parent="1">
          <mxGeometry x="590" y="420" width="60" height="30" as="geometry" />
        </mxCell>
        <mxCell id="E9quBOTO5DfnvyNl6SX9-38" value="" style="endArrow=open;endFill=1;endSize=12;html=1;rounded=0;exitX=0;exitY=1;exitDx=0;exitDy=0;entryX=0.5;entryY=0;entryDx=0;entryDy=0;" edge="1" parent="1" source="E9quBOTO5DfnvyNl6SX9-10" target="E9quBOTO5DfnvyNl6SX9-11">
          <mxGeometry width="160" relative="1" as="geometry">
            <mxPoint x="340" y="350" as="sourcePoint" />
            <mxPoint x="379" y="360" as="targetPoint" />
          </mxGeometry>
        </mxCell>
        <mxCell id="E9quBOTO5DfnvyNl6SX9-39" value="" style="endArrow=open;endFill=1;endSize=12;html=1;rounded=0;exitX=1;exitY=1;exitDx=0;exitDy=0;entryX=0.5;entryY=0;entryDx=0;entryDy=0;" edge="1" parent="1" source="E9quBOTO5DfnvyNl6SX9-10" target="E9quBOTO5DfnvyNl6SX9-12">
          <mxGeometry width="160" relative="1" as="geometry">
            <mxPoint x="340" y="350" as="sourcePoint" />
            <mxPoint x="500" y="350" as="targetPoint" />
          </mxGeometry>
        </mxCell>
        <mxCell id="E9quBOTO5DfnvyNl6SX9-40" value="" style="endArrow=open;endFill=1;endSize=12;html=1;rounded=0;entryX=0;entryY=0;entryDx=0;entryDy=0;" edge="1" parent="1" target="E9quBOTO5DfnvyNl6SX9-13">
          <mxGeometry width="160" relative="1" as="geometry">
            <mxPoint x="340" y="420" as="sourcePoint" />
            <mxPoint x="500" y="420" as="targetPoint" />
          </mxGeometry>
        </mxCell>
        <mxCell id="E9quBOTO5DfnvyNl6SX9-41" value="" style="endArrow=open;endFill=1;endSize=12;html=1;rounded=0;exitX=0.5;exitY=1;exitDx=0;exitDy=0;entryX=1;entryY=0;entryDx=0;entryDy=0;" edge="1" parent="1" source="E9quBOTO5DfnvyNl6SX9-12" target="E9quBOTO5DfnvyNl6SX9-13">
          <mxGeometry width="160" relative="1" as="geometry">
            <mxPoint x="540" y="470" as="sourcePoint" />
            <mxPoint x="700" y="470" as="targetPoint" />
          </mxGeometry>
        </mxCell>
        <mxCell id="E9quBOTO5DfnvyNl6SX9-42" value="Online Shopping" style="text;align=center;fontStyle=1;verticalAlign=middle;spacingLeft=3;spacingRight=3;strokeColor=none;rotatable=0;points=[[0,0.5],[1,0.5]];portConstraint=eastwest;html=1;" vertex="1" parent="1">
          <mxGeometry x="300" width="80" height="26" as="geometry" />
        </mxCell>
        <mxCell id="E9quBOTO5DfnvyNl6SX9-43" value="" style="endArrow=open;endFill=1;endSize=12;html=1;rounded=0;exitX=0.5;exitY=1;exitDx=0;exitDy=0;entryX=0.5;entryY=0;entryDx=0;entryDy=0;" edge="1" parent="1" source="E9quBOTO5DfnvyNl6SX9-5" target="E9quBOTO5DfnvyNl6SX9-9">
          <mxGeometry width="160" relative="1" as="geometry">
            <mxPoint x="340" y="230" as="sourcePoint" />
            <mxPoint x="500" y="230" as="targetPoint" />
          </mxGeometry>
        </mxCell>
        <mxCell id="E9quBOTO5DfnvyNl6SX9-44" value="Register" style="ellipse;whiteSpace=wrap;html=1;" vertex="1" parent="1">
          <mxGeometry x="10" y="280" width="140" height="70" as="geometry" />
        </mxCell>
        <mxCell id="E9quBOTO5DfnvyNl6SX9-45" value="" style="endArrow=open;endFill=1;endSize=12;html=1;rounded=0;exitX=1;exitY=1;exitDx=0;exitDy=0;exitPerimeter=0;entryX=0;entryY=0;entryDx=0;entryDy=0;" edge="1" parent="1" source="E9quBOTO5DfnvyNl6SX9-2" target="E9quBOTO5DfnvyNl6SX9-44">
          <mxGeometry width="160" relative="1" as="geometry">
            <mxPoint x="340" y="330" as="sourcePoint" />
            <mxPoint x="500" y="330" as="targetPoint" />
          </mxGeometry>
        </mxCell>
        <mxCell id="E9quBOTO5DfnvyNl6SX9-46" value="" style="endArrow=open;endFill=1;endSize=12;html=1;rounded=0;exitX=1;exitY=0;exitDx=0;exitDy=0;entryX=0;entryY=1;entryDx=0;entryDy=0;" edge="1" parent="1" source="E9quBOTO5DfnvyNl6SX9-44" target="E9quBOTO5DfnvyNl6SX9-9">
          <mxGeometry width="160" relative="1" as="geometry">
            <mxPoint x="340" y="330" as="sourcePoint" />
            <mxPoint x="500" y="330" as="targetPoint" />
          </mxGeometry>
        </mxCell>
        <mxCell id="E9quBOTO5DfnvyNl6SX9-47" value="Info" style="text;html=1;strokeColor=none;fillColor=none;align=center;verticalAlign=middle;whiteSpace=wrap;rounded=0;rotation=60;" vertex="1" parent="1">
          <mxGeometry x="-10" y="245" width="60" height="30" as="geometry" />
        </mxCell>
        <mxCell id="E9quBOTO5DfnvyNl6SX9-54" value="" style="endArrow=open;endFill=1;endSize=12;html=1;rounded=0;exitX=1;exitY=1;exitDx=0;exitDy=0;exitPerimeter=0;entryX=1;entryY=0;entryDx=0;entryDy=0;" edge="1" parent="1" source="E9quBOTO5DfnvyNl6SX9-6" target="E9quBOTO5DfnvyNl6SX9-14">
          <mxGeometry width="160" relative="1" as="geometry">
            <mxPoint x="260" y="460" as="sourcePoint" />
            <mxPoint x="420" y="460" as="targetPoint" />
          </mxGeometry>
        </mxCell>
        <mxCell id="E9quBOTO5DfnvyNl6SX9-55" value="purchase" style="ellipse;whiteSpace=wrap;html=1;" vertex="1" parent="1">
          <mxGeometry x="220" y="220" width="140" height="70" as="geometry" />
        </mxCell>
        <mxCell id="E9quBOTO5DfnvyNl6SX9-56" value="" style="endArrow=open;endFill=1;endSize=12;html=1;rounded=0;entryX=0;entryY=0;entryDx=0;entryDy=0;exitX=1;exitY=1;exitDx=0;exitDy=0;" edge="1" parent="1" source="E9quBOTO5DfnvyNl6SX9-9" target="E9quBOTO5DfnvyNl6SX9-55">
          <mxGeometry width="160" relative="1" as="geometry">
            <mxPoint x="190" y="190" as="sourcePoint" />
            <mxPoint x="350" y="190" as="targetPoint" />
          </mxGeometry>
        </mxCell>
        <mxCell id="E9quBOTO5DfnvyNl6SX9-57" value="" style="endArrow=open;endFill=1;endSize=12;html=1;rounded=0;exitX=1;exitY=0.5;exitDx=0;exitDy=0;entryX=0;entryY=0;entryDx=0;entryDy=0;" edge="1" parent="1" source="E9quBOTO5DfnvyNl6SX9-55" target="E9quBOTO5DfnvyNl6SX9-10">
          <mxGeometry width="160" relative="1" as="geometry">
            <mxPoint x="260" y="260" as="sourcePoint" />
            <mxPoint x="420" y="260" as="targetPoint" />
          </mxGeometry>
        </mxCell>
        <mxCell id="E9quBOTO5DfnvyNl6SX9-58" value="" style="endArrow=open;endFill=1;endSize=12;html=1;rounded=0;exitX=0;exitY=1;exitDx=0;exitDy=0;entryX=0.5;entryY=0;entryDx=0;entryDy=0;" edge="1" parent="1" source="E9quBOTO5DfnvyNl6SX9-55" target="E9quBOTO5DfnvyNl6SX9-59">
          <mxGeometry width="160" relative="1" as="geometry">
            <mxPoint x="250" y="290" as="sourcePoint" />
            <mxPoint x="410" y="290" as="targetPoint" />
          </mxGeometry>
        </mxCell>
        <mxCell id="E9quBOTO5DfnvyNl6SX9-59" value="Cancel" style="ellipse;whiteSpace=wrap;html=1;" vertex="1" parent="1">
          <mxGeometry x="70" y="420" width="140" height="70" as="geometry" />
        </mxCell>
      </root>
    </mxGraphModel>
  </diagram>
</mxfile>
